<?xml version="1.0" encoding="utf-8"?>
<!-- Generator: Adobe Illustrator 25.1.0, SVG Export Plug-In . SVG Version: 6.00 Build 0)  -->
<svg version="1.1" id="_x2014_ÎÓÈ_x5F_1" xmlns="http://www.w3.org/2000/svg" xmlns:xlink="http://www.w3.org/1999/xlink"
	 x="0px" y="0px" viewBox="0 0 528 312.5" style="enable-background:new 0 0 528 312.5;" xml:space="preserve">
<style type="text/css">
	.st0{fill:#FFFFFF;}
	.st1{fill:#FFB41C;}
	.st2{fill:#DEDEDE;}
	.st3{fill:#FB911B;}
	.st4{fill:#464646;}
	.st5{fill:#F7B690;}
	.st6{fill:#F18B15;}
	.st7{fill:#2D2D2D;}
	.st8{fill:#E3E5FC;}
	.st9{fill:url(#SVGID_1_);}
	.st10{fill:#8656F7;}
	.st11{fill:#ABA4FC;}
	.st12{fill:#773BE8;}
	.st13{fill:#733CDF;}
	.st14{opacity:0.3;}
	.st15{fill:#C3C5F2;}
	.st16{fill:#9C9CE5;}
	.st17{opacity:0.8;}
	.st18{opacity:0.7;}
	.st19{fill:url(#SVGID_2_);}
	.st20{fill:url(#SVGID_3_);}
	.st21{fill:url(#SVGID_4_);}
	.st22{fill:url(#SVGID_5_);}
	.st23{fill:url(#SVGID_6_);}
	.st24{fill:url(#SVGID_7_);}
	.st25{fill:url(#SVGID_8_);}
	.st26{fill:url(#SVGID_9_);}
	.st27{fill:#F2690C;}
	.st28{fill:#EFA681;}
	.st29{fill:url(#SVGID_10_);}
	.st30{fill:url(#SVGID_11_);}
	.st31{fill:#DFE0FC;}
	.st32{fill:url(#SVGID_12_);}
	.st33{fill:#5835AB;}
	.st34{fill:#E6E7FA;}
	.st35{fill:url(#SVGID_13_);}
	.st36{fill:url(#SVGID_14_);}
	.st37{fill:url(#SVGID_15_);}
	.st38{fill:url(#SVGID_16_);}
	.st39{fill:url(#SVGID_17_);}
	.st40{fill:url(#SVGID_18_);}
	.st41{fill:url(#SVGID_19_);}
	.st42{fill:url(#SVGID_20_);}
	.st43{fill:url(#SVGID_21_);}
	.st44{fill:url(#SVGID_22_);}
	.st45{fill:url(#SVGID_23_);}
	.st46{fill:url(#SVGID_24_);}
	.st47{fill:url(#SVGID_25_);}
	.st48{fill:url(#SVGID_26_);}
	.st49{fill:url(#SVGID_27_);}
	.st50{fill:url(#SVGID_28_);}
	.st51{fill:url(#SVGID_29_);}
	.st52{fill:url(#SVGID_30_);}
	.st53{fill:url(#SVGID_31_);}
	.st54{fill:url(#SVGID_32_);}
	.st55{fill:url(#SVGID_33_);}
	.st56{fill:url(#SVGID_34_);}
	.st57{fill:url(#SVGID_35_);}
	.st58{fill:url(#SVGID_36_);}
	.st59{fill:url(#SVGID_37_);}
	.st60{fill:url(#SVGID_38_);}
	.st61{fill:#582EBF;}
	.st62{fill:#5034A5;}
	.st63{fill:url(#SVGID_39_);}
	.st64{fill:url(#SVGID_40_);}
	.st65{fill:#D64D0A;}
	.st66{fill:#E0596A;}
	.st67{fill:url(#SVGID_41_);}
	.st68{fill:url(#SVGID_42_);}
	.st69{fill:url(#SVGID_43_);}
	.st70{fill:url(#SVGID_44_);}
	.st71{fill:#FFD4B3;}
	.st72{fill:#0086FF;}
	.st73{opacity:0.55;fill:#FFD4B3;}
	.st74{opacity:0.7;fill:none;stroke:#FFC55E;stroke-miterlimit:10;}
	.st75{opacity:0.62;fill:#FFFFFF;}
	.st76{fill:none;stroke:#DDB6C0;stroke-miterlimit:10;}
	.st77{fill:#FA7561;}
	.st78{fill:none;stroke:#FFFFFF;stroke-miterlimit:10;}
	.st79{fill:#83A1B7;}
	.st80{fill:#B3DEFF;}
	.st81{fill:#64BDFF;}
	.st82{fill:#7D7D7D;}
	.st83{fill:url(#SVGID_45_);}
	.st84{fill:url(#SVGID_46_);}
	.st85{fill:url(#SVGID_47_);}
	.st86{fill:#BCBCBC;}
	.st87{fill:#5E98FF;}
	.st88{fill:#23575D;}
	.st89{opacity:0.55;fill:#DEDEDE;}
	.st90{opacity:0.77;fill:#FFFFFF;}
	.st91{fill:#FDC8A8;}
	.st92{opacity:9.000000e-02;fill:#5E98FF;}
	.st93{opacity:0.16;fill:#5E98FF;}
	.st94{opacity:0.43;fill:#3C7BD6;}
	.st95{fill:#D0D6E2;}
	.st96{fill:#E5A67C;}
	.st97{fill:#FCDDD0;}
	.st98{opacity:0.9;}
	.st99{fill:#B5CEE5;}
	.st100{fill:#74ECF3;}
	.st101{fill:#A5C6E5;}
	.st102{fill:url(#SVGID_48_);}
	.st103{fill:#364254;}
	.st104{fill:#E79D77;}
	.st105{opacity:6.000000e-02;}
	.st106{fill:#FFB992;}
	.st107{fill:#FFCDB2;}
	.st108{opacity:0.1;}
	.st109{opacity:0.15;}
	.st110{opacity:7.000000e-02;}
	.st111{fill:#83634C;}
	.st112{fill:#8F8F8E;}
</style>
<g>
	<g>
		<path class="st65" d="M410.1,114.5h106C513.7,57,467.6,11,410.1,8.6V114.5z"/>
		<path class="st6" d="M407.4,123.9l-76.9,76.9c19.7,18.2,46,29.3,74.9,29.3c59.7,0,108.2-47.2,110.6-106.2H407.4z"/>
		<path class="st6" d="M400.8,117.3V8.6c-59.1,2.5-106.2,51-106.2,110.6c0,28.9,11.2,55.2,29.3,74.9L400.8,117.3z"/>
	</g>
	<g>
		<rect x="33.9" y="149.4" class="st1" width="68.9" height="80.7"/>
		<rect x="119.2" y="98.8" class="st1" width="68.9" height="131.3"/>
		<rect x="204.5" y="7.6" class="st1" width="68.9" height="222.5"/>
		<rect x="289.8" y="66" class="st1" width="68.9" height="164.1"/>
	</g>
	<path class="st65" d="M367.9,60.8c-17.1,1.1-34.2,2.2-51.3,3.4c5.6,8.8,8.6,13.5,10.7,16.9l-114.6,60.7l-77.6-28L31.3,158.4
		l4.2,9.8l99.9-43l78.6,28.4c39.7-23.9,79.5-39.9,119.2-63.4c2.1,3.3,5,7.8,9.9,15.6C351.4,90.8,359.6,75.8,367.9,60.8z"/>
</g>
<g>
	<path class="st104" d="M473.6,186.9l-18.5,1.8l-0.2,10.7c0.9,6.4,4.5,38.1,4.5,38.1l0.2,0l7.2,48.5c-0.4,2.2-5.4,6.3-8.4,6.5
		c-2.3,0.2-2.8,2.3-2.9,3.1h18.1c-0.1-4.3-0.6-8.5-0.9-9.8c0.3-8.1,1.2-31.2,0.5-36.6c-0.7-5.6-2.1-12.9-2.4-15
		c-0.1-6.3-0.1-20.1,1.9-29.5C475.6,192.3,473.6,186.9,473.6,186.9z"/>
	<path class="st105" d="M473.6,186.9l-18.5,1.8l-0.2,10.7c0.6,4.2,2.3,19.4,3.5,29.3c1.2-0.1,2.4,0.2,3.6,1.1
		c8.9,7.2,7.9,21.8,8.9,32.1c0.7,7.6,1.6,15.4,0.1,23.1c-0.8,4.1-2.8,7.8-5.4,10.7h8.2c-0.1-4.3-0.6-8.5-0.9-9.8
		c0.3-8.1,1.2-31.2,0.5-36.6c-0.7-5.6-2.1-12.9-2.4-15c-0.1-6.3-0.1-20.1,1.9-29.5C475.6,192.3,473.6,186.9,473.6,186.9z"/>
	<path class="st7" d="M446.3,106.7c-5,2.2-7.4,7.2-6.4,12.2c0.9,4.9-0.4,8.1-0.8,14.4c-0.4,6.2,5.5,8.3,5.5,8.3
		c0.4,13.9,26.2,2.3,30.1-0.8c3.9-3.1-4.9-20.2-10-28.1C459.4,104.7,451.3,104.5,446.3,106.7z"/>
	<path class="st104" d="M456.4,286.6c0.3-5.3,1.8-31.4,1.1-37.3c-0.8-6-2.3-14.2-2.5-15.4c-0.6-7.1,1.1-27,1.1-27l0.7-21.1
		l-15.5-0.9c0,0-0.2,3.8-0.5,12c-0.3,8.2,3,40.4,3,40.4l6.7,49.7c-1.3,2.2-5.9,5.3-8.7,5.5c-2.4,0.2-3,2.3-3.1,3.1h19.1
		C457.7,290.3,456.5,286.6,456.4,286.6L456.4,286.6z"/>
	<path class="st105" d="M456.4,286.6c0.3-5.3,1.8-31.4,1.1-37.3c-0.8-6-2.3-14.2-2.5-15.4c-0.6-7.1,1.1-27,1.1-27l0.7-21.1
		l-15.5-0.9c0,0-0.2,3.8-0.5,12c-0.2,5.3,1.2,21,2.1,31.2c1.4-0.3,2.9,0,4.1,1.4c5.1,5.7,6.2,12.8,6.9,20.2c0.9,9.1,0.8,18,1,27.1
		c0.1,6.4,2.2,14.2-3,18.9h5.8C457.7,290.3,456.5,286.6,456.4,286.6L456.4,286.6z"/>
	<path class="st4" d="M466.6,293.1c-2.8,0.3-3.9,0.3-6.6-1c0,0-2,0.4-2.2,0.5c-1.8,0.4-2.2,2.3-2.3,3h18.1c0-1.2,0-2.8-0.1-3.9
		C471.9,292.9,468.4,292.9,466.6,293.1z"/>
	<path class="st4" d="M442.9,292.3C442.9,292.3,442.9,292.3,442.9,292.3c-0.4,0.1-0.8,0.2-1.2,0.2c-2.4,0.2-3,2.3-3.1,3.1h19.1
		c0-1.1,0-2.6-0.1-3.6C452.7,292.4,447.7,294.8,442.9,292.3z"/>
	<path class="st6" d="M442.8,136.7c0,0-2.8,0.6-2.6,6.8c0.1,5.2-2,18.1-2,18.1l-7.8,4.7c0,0,1.2,4.2,1.8,5.2c1.3,1.8,3.2,1,3.2,1
		s7.9-2.4,10.5-4.9C448.5,165.1,452.9,137.5,442.8,136.7z"/>
	<path class="st4" d="M473.6,186.9l-33.6,0.4c0,0-2.8,37-1.1,38.2c0,0,20.8,1.1,37.1-0.8c0,0,0-12.7-1.1-27.3
		C474.7,193.5,474.5,190.3,473.6,186.9z"/>
	<path class="st105" d="M473.6,186.9l-4.3,0.1c-2.3,14.6-5.2,30.1-16.6,38.9c7,0,15.6-0.2,23.3-1.1c0,0,0-12.7-1.1-27.3
		C474.7,193.5,474.5,190.3,473.6,186.9z"/>
	<path class="st105" d="M435.3,168.2c-1.5,1.1-3,1.1-4.2,0.5c0.4,1.1,0.8,2.2,1.1,2.6c1.3,1.8,3.2,1,3.2,1s7.9-2.4,10.5-4.9
		c0.1-0.1,0.1-0.1,0.2-0.2c-1.1-3.9-1.4-8.2-1.4-12.5C443.2,159.9,440.3,164.5,435.3,168.2z"/>
	<path class="st6" d="M460.2,129.9c-2.2-0.7-15.8,5.6-18.2,7.3l0.9,12c0,0-1.3,4.4-1.1,6.6c0.2,2.2,2,3.9,2,3.9s0.4,13.3-0.2,15.3
		c-0.7,2-3.5,12.2-3.5,12.2s18.4,3.5,33.6-0.4c0,0-4.4-12-4.4-20.8c0-8.7,4.8-17.5,4.8-17.5s2.2-7.4,0.2-11.2
		C474.3,137.5,462.3,130.6,460.2,129.9z"/>
	<path class="st104" d="M459,125.1l-7.1,3.8l0.5,3.1l-4.8,2.1c0,0,5.7,7.1,17.7-1.7c0,0-3.3-1.3-4.8-2.8
		C459.5,128.7,458.9,126.6,459,125.1z"/>
	<path class="st105" d="M467.2,155.6c0.2,10.4-1.5,21.7-8.9,29.5c-1.3,1.4-2.8,2.6-4.4,3.7c6,0.2,13.1-0.1,19.7-1.8
		c0,0-4.4-12-4.4-20.8c0-8.7,4.8-17.5,4.8-17.5s0.4-1.4,0.7-3.3c-2.2,1-4.3,2.1-6.4,3.2C468.2,150.8,467.8,153.2,467.2,155.6z"/>
	<path class="st104" d="M454.5,164.6c0,0-8.3-3.4-8.7-3.4c-0.5,0-8.4,2.9-8.4,2.9s0,0.9,0.8,1l4.1-0.5l5.1,5l1.4-0.4
		c0,0,2.6,0.8,3.5,0.9c0.9,0.1,2.8-0.2,2.8-0.2l4.8,1.5l-0.9-6.1L454.5,164.6z"/>
	<path class="st7" d="M443,161.1c-0.2-0.3-0.4-0.5-0.7-0.6c-2.1-0.7-11-3.7-16.8-5.8c-0.9-0.3-0.5,0.7-0.5,0.7l8.4,11.6l14.7,4.2
		c0,0,0.8-0.2,0.6-0.7C447,167.9,443,161.1,443,161.1z"/>
	<path class="st105" d="M459,125.1l-7.1,3.8l0.5,3.1l-2.1,0.9c0.3,0.3,0.6,0.6,0.9,1c0.7,0.9,4,0.6,4.8,0.5c1.9-0.3,3.1-1.4,4.5-2.7
		c0.4-0.4,0.7-0.7,1.1-1.1c-0.4-0.3-0.8-0.6-1.2-0.9C459.5,128.7,458.9,126.6,459,125.1z"/>
	<polygon class="st7" points="424.9,155.4 433.2,167.5 448,171.1 442.1,161.3 	"/>
	<g>
		<g>
			<path class="st104" d="M431.5,164H429c-0.4,0-0.7,0.3-0.7,0.7v0c0,0.4,0.3,0.7,0.7,0.7h2.5c0.4,0,0.7-0.3,0.7-0.7v0
				C432.2,164.3,431.9,164,431.5,164z"/>
			<path class="st104" d="M436.8,166.6h-3.3h-3.4c-0.4,0-0.7,0.3-0.7,0.7s0.3,0.7,0.7,0.7h6.7c0.4,0,0.7-0.3,0.7-0.7
				S437.2,166.6,436.8,166.6z"/>
			<path class="st104" d="M436.1,169.2l-2.6,0.4l-2.7,0.4c-0.3,0-0.5,0.4-0.5,0.8c0.1,0.4,0.7,0.7,1,0.7l5-0.9
				c0.3,0,0.8-0.4,0.7-0.9C436.9,169.3,436.4,169.2,436.1,169.2z"/>
			<path class="st104" d="M437.4,168c0,0-3-0.9-4-1.3c-2.3-0.9-2.9-1.6-2.9-1.6l-1.8,0c0,0,0.5,0.8,0.4,1.2c0,0.4,0,1.5,0.1,1.9
				c0.2,0.5,0.7,0.5,0.6,0.7c-0.3,0.9,0.7,1.2,0.7,1.2l6.8-0.9c0,0,0.6-0.2,0.7-0.7C438.1,168.1,437.4,168,437.4,168z"/>
		</g>
		<path class="st104" d="M431,171.3c0,0,1.2,0.9,2.5,1c1.3,0.1,2.6-1.6,2.6-1.6l-6-1.1L431,171.3z"/>
	</g>
	<path class="st6" d="M479,144.9c-2.5-6.3-2.7-6.9-4.8-7.9c-7.1-3.4-8.3,8.3-8.3,8.3l9.6,19.8c-2.8,0.4-17.5-0.6-17.5-0.6l0.4,6.7
		c6.6,2.2,23.7,3.4,25.5,3c2.9-0.7,2.7-3.9,2.6-6.4C486.5,165.4,481.5,151.2,479,144.9z"/>
	<path class="st105" d="M480,147.5c1.7,5.3,4.2,15.4,2.5,18.3c-4.8,8.2-15.9,3.8-24.1,2.5c-0.1,0-0.1,0-0.2,0l0.2,3
		c6.6,2.2,23.7,3.4,25.5,3c2.9-0.7,2.7-3.9,2.6-6.4C486.5,165.7,482.6,154.4,480,147.5z"/>
	<path class="st104" d="M459.5,115.5c-0.6,0.2-1.1,2.8-1.1,2.8s-4.8-5.5-5.8-5.7c-1.1-0.2-8.3-1-9.2,1.8c-1,2.8,0.5,7.9,1.3,10.2
		c0.8,2.3,3,7.3,7.5,7.8c1.2,0.1,3.7-2.1,5.7-3.7c2-1.6,2.1-5.7,2.1-5.7l0.2-1.5c0,0,1.6-0.2,1.7-2.9
		C462.1,115.8,460.1,115.3,459.5,115.5z"/>
	<path class="st7" d="M442.3,113.7c0,0-1.7,5.4-0.4,6.3c3.5,2.3,10.9-5.3,10.9-5.3s7.1,0,6.5,13c0,0.2,0.8,0.5,1.6-1.6
		c1.3-3.6,2.7-10.6,2.7-10.6l-12.2-5.6L442.3,113.7z"/>
</g>
<g>
	<g>
		<rect x="97.5" y="205.6" class="st4" width="28.6" height="2.2"/>
		<path class="st4" d="M120.7,189.5c-0.4-0.2-0.8,0-1,0.4l-5.5,12.8c-0.2,0.4,0,0.8,0.4,1c0.4,0.2,0.8,0,1-0.4l5.5-12.8
			C121.3,190.1,121.1,189.7,120.7,189.5z"/>
		<path class="st0" d="M109.8,292.4c-8.2-2.4-11.8-5.9-11.8-5.9l-6.5,0.1c0,0-0.5,2.1-0.7,4.3c-0.3,2.4-0.9,5.3,1.3,5.3l20.9,0.3
			C113,296.6,115.1,294,109.8,292.4z"/>
		<path class="st0" d="M125,292.4c-8.2-2.4-11.8-5.9-11.8-5.9l-6.5,0.1c0,0-0.5,2.1-0.7,4.3c-0.3,2.4-0.9,5.3,1.3,5.3l20.9,0.3
			C128.1,296.6,130.2,294,125,292.4z"/>
		<path class="st106" d="M103.5,237.6c-0.7,1.1-2.2,10-2.4,12.5c-0.2,2.4,6.2,37.6,6.2,37.6c3.6,2.2,6.7-0.4,6.7-0.4l-0.2-51.2
			C113.8,236.1,104.2,236.5,103.5,237.6z"/>
		<path class="st105" d="M103.5,237.6c-0.7,1.1-2.2,10-2.4,12.5c-0.2,2.4,6.2,37.6,6.2,37.6c3.6,2.2,6.7-0.4,6.7-0.4l-0.2-51.2
			C113.8,236.1,104.2,236.5,103.5,237.6z"/>
		<path class="st82" d="M71.7,172.8c0,0-6.6-11.7-13.8-4.8c0,0-6.3,7.5-5.7,16.5c0.6,9,0.4,20-0.5,25.1c-0.9,5.1-2.5,15.5-1.9,19.4
			l22.4-7.4c0,0,3.6-17.8,3.3-19.9c0,0,6.2-1.9,3.8-9.1C76.8,185.5,71.7,172.8,71.7,172.8z"/>
		<path class="st106" d="M107.6,227.5c-4.2-1.3-34.1-8.2-34.1-8.2l-24,9.1c0,0,1.5,10.3,9.7,10.1c7.8-0.2,36.3,0.7,39.1,0.8
			c-1.2,3-2.7,7.1-3.8,11.5c-2.1,8.6-3.3,37.3-3.3,37.3l0.1,0c0,0.1,0,0.2-0.1,0.3c2.4,1,6.3,0.7,7.2-1.5c-0.3-0.2,1.1-4.2,1.1-4.2
			l0,0c5.1-19.2,12.8-38.9,14.2-47c0.1-0.2,0.7-3.5-0.5-4.4C112.3,229.5,110.3,228.4,107.6,227.5z"/>
		<path class="st105" d="M73.5,219.3l-24,9.1c0,0,1.5,10.3,9.7,10.1c7.8-0.2,36.3,0.7,39.1,0.8c-1.2,3-2.7,7.1-3.8,11.5
			c-2.1,8.6-3.3,37.3-3.3,37.3l0.1,0c0,0.1,0,0.2-0.1,0.3c0.5,0.2,1.1,0.4,1.7,0.5c-1.2-6,0.3-12.9,1.3-18.8
			c1.1-6.3,2.5-12.5,4.3-18.6c2.1-7.1,3-17.5,10.1-21.6c1-0.5,1.9-0.7,2.8-0.6c-1-0.7-2.3-1.3-3.8-1.8
			C103.4,226.2,73.5,219.3,73.5,219.3z"/>
		<path class="st7" d="M66.9,220.3c-6.6,1-10.2,0.6-17,0.5c-0.5,3-0.5,5.7-0.4,7.6c0.1,3.5,1.5,10.3,9.7,10.1
			c6.1-0.1,24.6,0.4,33.9,0.7c3-4.3,5.6-8.7,7.8-13.4c-10.1-2.5-28-7-28-7S68.9,220,66.9,220.3z"/>
		<path class="st106" d="M81.1,197.4c-3.6-1.1-7,3.8-7,5.9c0,2.1,2.5,2.9,5.1,3.7c2.7,0.8,30.3,0.5,30.3,0.5
			c1.3-3.6-0.2-5.3-0.2-5.3L81.1,197.4z"/>
		<path class="st105" d="M91,203.7c-0.5-0.2-0.8-0.5-1.1-0.8c-0.6-0.3-1.1-0.6-1.6-1c-1.4-0.7-2.1-1.7-2.3-2.8
			c-0.1-0.3-0.2-0.7-0.2-1l-4.6-0.8c-3.6-1.1-7,3.8-7,5.9c0,2.1,2.5,2.9,5.1,3.7c2.2,0.7,22.1,0.6,28.4,0.5
			c-0.9-0.1-1.8-0.2-2.7-0.3C100,206.8,95.3,206,91,203.7z"/>
		<path class="st82" d="M94.3,199.6l-12.9-2.2c0,0,0,0,0-0.1c-3.2-4.4-12.7-19.1-15.3-22.9c-1.5-2.2-3.6-2.9-5.4-2.8
			c-2.3,0.1-4.1,1.8-4.5,4.1c-0.2,1.1-0.3,2.5,0.1,4.1c1,4.2,15.7,27.1,23.1,28.1c0.3,0,9.5,0,16.3-0.4c-0.2-2.6-0.6-5.1-1.3-7.5
			C94.3,199.9,94.3,199.8,94.3,199.6z"/>
		<path class="st105" d="M57.5,174.7c-0.1-0.2-1.7-4.7,3.5-8.6c-1,0.3-2,0.9-3.1,1.9c0,0-6.3,7.5-5.7,16.5c0.6,9,0.4,20-0.5,25.1
			c-0.9,5.1-2.5,15.5-1.9,19.4l18.1-6c-2-0.2-3.9-1.2-5.3-2.8c-6-6.4-6.7-18.1-6.6-26.2c0-4.2-0.3-9.9,0.2-15.4c0,0.4,0.1,0.8,0.1,1
			c1,4.2,15.7,27.1,23.1,28.1c0.3,0,9.5,0,16.3-0.4c0-0.2-0.1-0.5-0.1-0.7C77.1,209.9,62.4,188.8,57.5,174.7z"/>
		<g>
			<path class="st106" d="M66.1,158.8l-5,7.4c1.8,3.1,5.5,5.2,7.2,5.2c0.7,0,1.2-0.3,1.6-0.7c-0.2-3.6,0.8-6.3,2.1-10.1L66.1,158.8z
				"/>
			<path class="st105" d="M63.8,162.2c1.5,2.6,3.7,4.4,6.2,5.7c0.3-2.3,1.1-4.5,2-7.2l-5.9-1.9L63.8,162.2z"/>
			<path class="st106" d="M74.4,141.7c-6.2-2.3-13.6,2-14.4,5.2s0.5,9.6,2.4,14.7c0,0,4.9,4,8,4.6c7.1,1.3,7.3-2.4,8.7-6.5
				C80.5,155.6,80.6,144,74.4,141.7z"/>
			<path class="st6" d="M70.4,139.1c-5.3-0.5-8.6,1.6-14.3,9.6c-5.7,7.9-3,9.6-1.4,12.2c2.9,4.6,10.5,3.9,10.5,3.9
				c-0.3-5.6,5.1-13.3,5.1-13.3l10.2,2.1C83.1,144.9,78.5,139.8,70.4,139.1z"/>
		</g>
		<path class="st106" d="M116.8,199.3c-1,0.1-1.6-1.3-2.2-1.5c-0.6-0.1-8.1,4.7-8.1,4.7l3.1,5c0,0,10.1,0.1,10.7,0.1
			c0.6,0,2.1-6.7,1-7.7C120.2,198.8,117.8,199.1,116.8,199.3z"/>
	</g>
	<g>
		<path class="st7" d="M39.2,295.6c1.2,0,2.4,0,3.5,0l9.1-44.5h-7.1L39.2,295.6z"/>
		<polygon class="st7" points="89.6,251.2 93,295.6 96.5,295.6 95.7,251.2 		"/>
		<path class="st4" d="M94.5,238.1l-44.3-0.7l-13.2-54c-0.3-1.2-1.5-2-2.7-1.9c-1.4,0.2-2.3,1.4-2.1,2.7l8.7,65.2
			c0.2,1.6,1.6,2.8,3.3,2.8h52.1c1.8,0,3.3-1.4,3.3-3.2v-5.1C99.5,241.1,97.4,238.2,94.5,238.1z"/>
	</g>
	<g>
		<path class="st107" d="M301.8,193.8c0,0-0.9,4.8,0.2,6.9l0.4,5.2c0,0,1.4,0.5,1.6-1.8c0.2-2.3,0-4.4,0.7-3
			c0.7,1.4,1.2,3.7,1.2,3.7l-0.4,6.1c0,0,0.2,0.9,1.1,1.6l2.3-8.4c0,0-0.4-5.5-2.8-10.7L301.8,193.8z"/>
		<g>
			<path class="st4" d="M292.6,133.6c-2.2-4.2-8.4-4-8.6,1c-0.4,8.9,5.4,33.3,5.4,33.3l11.6,27.2l6.1-1.7l-9.5-27.5
				C297.3,158,296.2,140.3,292.6,133.6z"/>
			<path class="st108" d="M292.6,133.6c-2.2-4.2-8.4-4-8.6,1c-0.4,8.9,5.4,33.3,5.4,33.3l11.6,27.2l6.1-1.7l-9.5-27.5
				C297.3,158,296.2,140.3,292.6,133.6z"/>
			<g>
				<path class="st7" d="M281.8,210.9l-1.6-20.2l-15.2-2.6c0,0-4.7,13.1-3.4,22.7c0.7,5.8,4.2,23.4,3.4,33.3
					c-0.3,3.5,0.1,10.9,1.8,20.9c2.3,13.3,6,20.8,6.2,23.1l5.8-0.8c0,0-2.3-39.7-2.1-41.7C277,243.5,281.8,210.9,281.8,210.9z"/>
				<path class="st109" d="M280.8,198.6l-0.6-7.9l-15.2-2.6c0,0-4.7,13.1-3.4,22.7c0.7,5.8,4.2,23.4,3.4,33.3
					c-0.3,3.5,0.1,10.9,1.8,20.9c2.3,13.3,6,20.8,6.2,23.1l5.8-0.8c0,0-0.1-1.2-0.2-3.2c-11.4-25.2-16.6-54.9-3.7-80.1
					C276.2,201.5,278.4,199.7,280.8,198.6z"/>
				<path class="st7" d="M279.2,191.6l1.2,23.9l6.6,24c0,0-6.6,12.6-9.1,19.3c-2.5,6.7-9.1,25.2-9.1,25.2l5.8,1.7l21.9-36.2
					c0,0,4.3-5.8,4.1-11.2c-0.2-5.4-5.2-44.3-5.2-44.3L279.2,191.6z"/>
				<path class="st109" d="M295.1,235.7c-0.8-2.4-1.4-4.7-2.4-7.1c-3.3-8.3-8.8-16.8-12.9-25.3l0.6,12.2l6.6,24
					c0,0-6.6,12.6-9.1,19.3c-2.5,6.7-9.1,25.2-9.1,25.2l4.1,1.2c1.4-3,2.9-6.1,4.4-9.1c4.4-8.9,7.4-18,12-26.7
					c2.1-3.9,4.5-7.8,5.5-11.1c0.1-0.3,0.3-1.6,0.3-1.9C295,235.8,294.9,235,295.1,235.7z"/>
				<path class="st107" d="M284.8,292.4c-4.5-1.6-6-5-6-5h-5.4l-0.4,0.8c0,0-0.4,4.6-0.4,7.5h14.2
					C286.8,295.7,287.3,293.2,284.8,292.4z"/>
				<path class="st7" d="M284.5,291.8c-3.4,0-5.3,0.1-8.5-1c-1.7-0.5-2-2.3-1.5-3.5h-1.1l-0.4,0.8c0,0-0.4,4.6-0.4,7.5h14.2
					C286.8,295.7,287.9,293.9,284.5,291.8z"/>
				<path class="st107" d="M277.5,288.6l-2.3-3.4l-6.4-1.2c0,0-2.3,4.2-2.9,7.1c0,0,7.8,4.6,8.9,4.6h9.1
					C283.9,295.7,285.3,293.2,277.5,288.6z"/>
				<path class="st7" d="M281.4,292.8c-5.4,0.1-10.1-1.7-13.7-5.7c-0.1-0.1-0.2-0.2-0.3-0.3c-0.6,1.3-1.3,3-1.5,4.3
					c0,0,7.8,4.6,8.9,4.6h9.1c0,0,0.9-1.2-1-3.4C282.4,292.6,281.9,292.8,281.4,292.8z"/>
				<path class="st0" d="M288.4,131.3c-17.8-7.3-30.3,5.6-30.3,5.6s2.6,3.8,3.7,8c1.1,4.3,9.2,18.3,9.1,25
					c-0.1,5.3-6.2,21.8-6.2,21.8l31.5,3.3c0,0-0.4-0.8,0.3-5c0.7-4.1-2.8-47.1-2.8-47.1S293.1,133.3,288.4,131.3z"/>
				<path class="st4" d="M296.5,153.7c0,0-1.1-7.8-1.7-9.7c-0.9-3.1-2.6-11.8-5.3-13c-2.4-1.1-5.3-1.5-7.5-1.8
					c2.2,3.2,3.6,6.8,5.1,10.5c2.1,5.2,4.7,10.4,5.6,15.9c0.9,5.7,0.5,11.8,0.4,17.5c-0.1,5.9-1.7,23.6-1.8,24.8l8.1-1.1
					c0,0,0.4-3.2-0.1-7.3C297.9,178.3,296.5,153.7,296.5,153.7z"/>
				<path class="st4" d="M283.6,148c-0.8-1.8-2-3.4-3-5c-2.6-4.6-6.3-8.4-8.8-13.1c-0.1-0.1-0.1-0.2-0.1-0.3
					c-8.4,2-13.6,7.3-13.6,7.3s2.6,3.8,3.7,8c1.1,4.3,7,18.4,6.9,25.1c-0.1,5.3-8.7,29.5-8.7,29.5s6.3,0.3,15.2-0.1
					c2.4-0.1,8.8-1.9,8.8-1.9c0.5-9.7,2.3-23.2,2.2-32.9C286.2,158.8,285.8,153.1,283.6,148z"/>
				<path class="st108" d="M273.8,161.3c-0.7-0.9-1.3-1.9-1.9-2.8c-1.4-1.4-3.1-2.9-3.7-3.4c-1.2-0.9-2.5-1.7-3.8-2.5
					c2,5.8,4.4,13.2,4.3,17.5c-0.1,5.3-8.7,29.5-8.7,29.5s6.1,0.3,14.7-0.1c0.9-4,1.4-8.7,2.4-12.4c0.1-0.4,0.2-0.8,0.3-1.2
					c0.7-5.3,0.6-11.3-0.5-16.3C276.4,166.6,275.6,163.8,273.8,161.3z"/>
				<path class="st107" d="M268.7,167.1c-3.8-0.5-10.5-0.9-10.5-0.9L257,175c0,0,13,1.3,27.8-4.8l-0.3-4.3
					C284.5,166,272.5,167.6,268.7,167.1z"/>
				<path class="st4" d="M264.2,166c1.3-8.6,1.8-20.4,1.8-20.4s-0.6-15.2-7.5-9.3c0,0-3.4,5.2-3.7,17.9c-0.3,12.7-0.8,18.9,1.8,20.5
					c0.9,0.6,2,0.9,3,0.5c3.8,0.4,11.5,0.5,20.4-2.3c-0.3-1.7-0.7-6.4-0.7-6.4C276.3,166.7,269.5,166.3,264.2,166z"/>
				<path class="st108" d="M267,171.5c-5.9-1-9.7-7.6-9.9-13c-0.2-7.7,1.5-15.4,2.8-22.9c0-0.1,0-0.1,0-0.2c-0.5,0.2-1,0.5-1.5,1
					c0,0-3.4,5.2-3.7,17.9c-0.3,12.7-0.8,18.9,1.8,20.5c0.9,0.6,2,0.9,3,0.5c3.8,0.4,11.5,0.5,20.4-2.3c0-0.2-0.1-0.4-0.1-0.6
					C275.6,172.4,271.4,172.2,267,171.5z"/>
				<path class="st7" d="M316.2,152.1l-14.9-0.1c-0.1,0-0.3,0.1-0.3,0.2l-12.7,22.1c-0.1,0.3,0,0.6,0.3,0.6l14.9,0.1
					c0.1,0,0.3-0.1,0.3-0.2l12.7-22.1C316.7,152.4,316.5,152.1,316.2,152.1z"/>
				<path class="st107" d="M301,165c0,0-5.9,1.8-7.6,1.9c-1.6,0.1-1.2-0.8-1.2-0.8l0.9-0.2c0.3-0.5,0.6-1,0.9-1.7l-4.3-0.2l-6.7,2.2
					l-0.1,4c0,0,6,1.1,7.4,1.3c1.5,0.2,3-0.2,3-0.2l4.1-1.8l2.7-2.8l2.7-1.6C302.3,164.5,301,165,301,165z"/>
				<path class="st107" d="M274.7,121.8l-2.6,7.7c1.8,2.6,5.8,4.4,7.3,4.3c2.7-0.2,2.3-4.7,2.3-4.7l0.6-5.6L274.7,121.8z"/>
				<path class="st110" d="M274.7,121.8l-1,2.9c0.6,2.2,1.5,4.2,3.5,5.4c1.3,0.8,2.8,1.2,4.3,1.4c0.3-1.2,0.2-2.4,0.2-2.4l0.6-5.6
					L274.7,121.8z"/>
				<path class="st107" d="M283.9,105.2c-5.9-1.9-12.7,2.5-13.3,5.6c-0.6,3.1,0.9,9,3,13.7c0,0,6.7,5,9.4,3.7
					c2.7-1.3,4.2-3.4,5.3-7.3S289.8,107,283.9,105.2z"/>
			</g>
		</g>
		<path class="st7" d="M286.2,103.7c-4.2-3.6-8.2-3-12.9-0.2c-4.7,2.8-6.3,9.9-3.8,15.1c2.5,5.2,4.1,5.9,4.1,5.9l0.3-5
			c-1.1,0.3-2.2-1.4-1.4-4.1c0.8-2.8,3.5,1.3,3.5,1.3s-0.1-2.6,0.7-2.5c2.7,0.4,3.4-6.1,8.8-6.1c3.1,0,3.4,4.9,3.4,4.9
			S292.6,109.1,286.2,103.7z"/>
		<path class="st7" d="M265.5,103.2c-3,3.3-1,15.4,3.3,13.5c5.5-2.3,4.1-11.9,4.1-11.9S268.5,99.9,265.5,103.2z"/>
		<path class="st7" d="M273.2,126.8l-5.1,4l1.5,4.7l5.5,1.8l-1.9,2.5c7.7,5,13,20.9,13,20.9c-0.2-12.4-6.2-20.7-11.2-28.2
			C272.7,129,273.2,126.8,273.2,126.8z"/>
		<path class="st7" d="M287.9,134.9l1.5-0.8c0,0-4.5-3.8-6-4.8l-1.8-0.9l-0.1,2.2c0,0,8.9,12.1,11.6,27.5c0,0-1.8-16.1-2.5-20.2
			L287.9,134.9z"/>
	</g>
	<g>
		<path class="st4" d="M396.3,287c-0.4,0-0.8,0.1-1.1,0.2v-4.5l-0.7-0.4c-0.5-0.3-11.3-6.7-21.5-9.6v-34.5h14.4v-4.8h-35.1v4.8H368
			v34.1c-10.6,2.5-22.7,9.7-23.2,10l-0.7,0.4v4.5c-0.4-0.1-0.7-0.2-1.1-0.2c-2.1,0-3.8,1.7-3.8,3.8c0,2.1,1.7,3.8,3.8,3.8
			c2.1,0,3.8-1.7,3.8-3.8c0-0.1,0-0.2,0-0.3h0.2v-6.1c2.8-1.6,13.5-7.5,22.4-9.5c2.4,1.9,5.5,6.8,6.7,9v6.1
			c-0.1,0.3-0.1,0.5-0.1,0.8c0,2.1,1.7,3.8,3.8,3.8c2.1,0,3.8-1.7,3.8-3.8c0-2.1-1.7-3.8-3.8-3.8c-0.3,0-0.6,0-0.9,0.1v-4l-0.2-0.3
			c-0.3-0.5-2.1-3.8-4.3-6.7c7.7,2.5,15.6,6.9,17.9,8.2v6.1h0.2c0,0.1,0,0.2,0,0.3c0,2.1,1.7,3.8,3.8,3.8c2.1,0,3.8-1.7,3.8-3.8
			C400.1,288.7,398.4,287,396.3,287z"/>
		<g>
			<path class="st2" d="M396.9,178.7h-24.1c-12.3,34,5.2,43,5.2,43s-24.7-4.1-30,1c-6.4,6.3-0.1,13.6-0.1,13.6h45.2
				c7.1-4.7,3.3-18.9-0.5-29.7C388.8,195.7,396.9,178.7,396.9,178.7z"/>
			<path class="st108" d="M372.8,178.7c-12.3,34,5.2,43,5.2,43s-24.7-4.1-30,1c-3.8,3.7-3.1,7.8-1.9,10.5c8.6-1.8,17.4-3,26.2-3.8
				c4.4-0.4,8.9-0.6,13.3-0.8c1.3-0.1,2.7,0,4-0.2c0.3-0.1,2-0.8,1.8-0.4c1.1-1.5,0.7-6,0.6-7.9c0-4.1-0.4-8.1-0.4-12.2
				c0-2.1,0-4.3,0.1-6.5c-0.7-10.4,5.2-22.8,5.2-22.8H372.8z"/>
			<path class="st82" d="M389.2,156.4c-17.8-9.1-36.3-2.6-39.9,4.8c-2.2,4.7,7.9,48.2,7.9,48.2l32.1,5.3c1-22,2.1-46.2,2.4-54.5
				C391.7,158.6,390.6,157.2,389.2,156.4z"/>
			<path class="st105" d="M376.2,188.6c-5.4,7.4-11.9,12.7-20.4,14.6c0.8,3.7,1.4,6.1,1.4,6.1l32.1,5.3c0.8-19.1,1.8-39.9,2.2-50.4
				c-3,3.1-4.9,7.2-6.9,11C382.1,179.9,379.3,184.4,376.2,188.6z"/>
			<path class="st111" d="M373.1,142.5l-8.4,0.2c0,0-0.5,4.2-0.5,10.7c0,1.6,0.5,3.5,2.7,3.8c2,0.3,7.3,0.6,7.7-4.5
				C374.5,152.8,372.6,150,373.1,142.5z"/>
			<path class="st110" d="M373.1,142.5l-8.4,0.2c0,0-0.4,3.5-0.5,9c3.3-0.3,6.7-1,9.1-3.3C373.1,146.9,372.9,145,373.1,142.5z"/>
			<path class="st111" d="M380.4,129.7c-2.1-3.8-16.9-4.4-16.9-4.4s-10.6,23.5,0.2,24.2c10.8,0.7,9.9-3,9.9-3S383,134.6,380.4,129.7
				z"/>
			<path class="st82" d="M354.4,157c-5.7,0.7-8.3,12.6-13.1,24.5c-4.2,10.5-14.1,25.4-14.1,25.4l14.8,0.3l17.6-32.8
				C359.6,174.4,358.7,156.4,354.4,157z"/>
			<path class="st105" d="M345,189.9c-3.7,6.1-8.2,12-13.4,17.1l10.4,0.2l10.8-20.1c-0.5-2.6-0.9-5.3-1.2-7.9
				C349.5,182.9,347.1,186.5,345,189.9z"/>
			<path class="st7" d="M372.8,122.8c-2.6-0.9-9.8-1.1-10.8,0.3c-0.5,0.7,0,5.5,0.2,5.6c11.7,2.5,13.2,6.8,13.2,7.6
				c0.1,0.7-3,11.6-2.2,11.9c2.5-4.3,8.1-9.7,8.8-15.8C382.6,127.7,375.3,123.8,372.8,122.8z"/>
			<path class="st111" d="M376.1,140.7c-0.7-0.5-2.7-0.1-2.7-0.1l-2.8,4.1C373.6,147.6,377.8,141.7,376.1,140.7z"/>
			<g>
				<path class="st4" d="M336.1,222.5c-6.4,0.4-6.4,9.5-6.4,9.6c-0.2,2.9,9.9,55.6,9.9,55.6l9.3,1.9c-0.2-8.4-1.9-21.2-1.9-27.6
					c0.3-27-5.2-31.6-5.2-31.6s14.2-11,12.6-13.4C353.5,215.6,337,222.4,336.1,222.5z"/>
				<path class="st4" d="M337.1,221.2c-9.4,0.4-6.5,11.1-2.2,14.1l48.3-6.8C383.2,228.5,347.5,220.7,337.1,221.2z"/>
				<g>
					<path class="st4" d="M363.3,209.9c0,0-22.6-0.5-31.4,0.7c-8.8,1.3-3.2,9.4-1.3,11.3c0.1,0.1,44.7,7.2,51.6,6.7
						c8.8-0.6,7.3-15.5,7.3-15.5L363.3,209.9z"/>
					<path class="st4" d="M325.2,209.4c-1,8-11.9,73.9-11.9,73.9l7.9-0.3c3.1-6.4,6.6-18.6,8.8-24.2c10.8-27.6,5.5-39.3,5.5-39.3
						S329.7,214.4,325.2,209.4z"/>
				</g>
				<g class="st108">
					<path d="M363.3,209.9c0,0-22.6-0.5-31.4,0.7c-8.8,1.3-3.2,9.4-1.3,11.3c0.1,0.1,44.7,7.2,51.6,6.7c8.8-0.6,7.3-15.5,7.3-15.5
						L363.3,209.9z"/>
					<path d="M325.2,209.4c-1,8-11.9,73.9-11.9,73.9l7.9-0.3c3.1-6.4,6.6-18.6,8.8-24.2c10.8-27.6,5.5-39.3,5.5-39.3
						S329.7,214.4,325.2,209.4z"/>
				</g>
				<path class="st7" d="M313.7,279.9c-4.4,6.2-11.4,9.2-12,10.5c-0.6,1.3,0.8,1.6,4,1.4c3.2-0.1,19.1-5.8,19.1-5.8
					c-0.1-2.8-2.2-6.8-2.2-6.8L313.7,279.9z"/>
				<path class="st4" d="M340.7,219.6c-2.3-0.2-5.7-0.8-7.8,0.3c-5.7,2.9-3.3,12-3.3,12.1c-0.2,2.9,9.9,55.6,9.9,55.6l9.3,1.9
					c-0.2-8.4-1.9-21.2-1.9-27.6c0.3-27-2.9-27.9-2.9-27.9l31.5-5C375.5,229,355.7,221,340.7,219.6z"/>
			</g>
			<path class="st111" d="M357.3,203.2l-8.7-2.1c0,0-1.7,0.3-2.4,0.7c-0.9,0.4-9.6,5.1-9.6,5.1s0.2,1.2,2,0.6l7-1.4l5.8,1.6
				c0,0,4.5,0.5,6.8-1.2l4.5-1l-0.3-2.4L357.3,203.2z"/>
			<path class="st82" d="M386,156.2c-7.2,1.4-0.8,33,1.3,41.8l-30,4.9v4.9c0,0,24.6-0.2,35.7-0.5c0.1,0.1,0.1,0.1,0.2,0.2
				c9.1-1.1,4.4-33.1,2.6-41.5C393.9,157.6,389,155.6,386,156.2z"/>
			<path class="st105" d="M395.5,191.4c-5.6,12.9-25.4,15.3-37.5,15.4c-0.2,0-0.4,0-0.7,0v1c0,0,24.6-0.2,35.7-0.5
				c0.1,0.1,0.1,0.1,0.2,0.2c6.9-0.9,5.9-19.9,4.1-32.5C397.6,180.4,397.6,186.6,395.5,191.4z"/>
			<path class="st7" d="M339.6,286.3c-6.1,5.6-15.1,6.1-16,7.3c-0.9,1.2,0.7,1.7,4.6,2c3.8,0.3,20.5-0.3,20.5-0.3
				c0.7-2.8,0.1-7.3,0.1-7.3L339.6,286.3z"/>
		</g>
		<path class="st0" d="M364.2,150.7l-2.8,2.8c0,0-0.5,4,2.5,6l2.1-2.8C366,156.7,363.6,154.7,364.2,150.7z"/>
		<path class="st0" d="M373.7,150.9c0.1,4.8-7.9,5.9-7.9,5.9l1.3,3.5c0,0,4.5-0.4,6.4-1.8c3.5-2.7,2.5-5.9,2.5-5.9L373.7,150.9z"/>
	</g>
	<g>
		<path class="st6" d="M212.4,166.8c0,0-8.5,9.4-4.7,15.8c0,0,14.5,18.3,16.8,19.6c2.3,1.4,1.8,3.2,4.4,3.4c2.6,0.2,8.4,0,8.4,0
			l2.4-5.6c0,0-6.4-2.6-11.3-7.5C223.6,187.6,215.5,168.5,212.4,166.8z"/>
		<path class="st105" d="M208.9,172.5c-0.1-0.1-0.1-0.3-0.1-0.4c-1.7,3.2-2.9,7.2-1,10.5c0,0,14.5,18.3,16.8,19.6
			c2.3,1.4,1.8,3.2,4.4,3.4c2.6,0.2,8.4,0,8.4,0l0,0C224.1,199.8,214.4,186,208.9,172.5z"/>
		<path class="st4" d="M205.6,288.7c-0.4,0-0.7,0.1-1,0.2v-4.1l-0.7-0.4c-0.5-0.3-10.7-6.1-20.3-8.7v-33.1h13.6v-4.3h-33.3v4.3h14.8
			v32.7c-10,2.3-21.5,8.9-22,9.1l-0.7,0.4v4.1c-0.3-0.1-0.7-0.2-1-0.2c-2,0-3.6,1.6-3.6,3.5c0,1.9,1.6,3.5,3.6,3.5
			c2,0,3.6-1.6,3.6-3.5c0-0.1,0-0.2,0-0.3h0.2v-5.6c2.7-1.5,12.8-6.8,21.3-8.6c2.3,1.7,5.2,6.2,6.3,8.2v5.6
			c-0.1,0.2-0.1,0.5-0.1,0.8c0,1.9,1.6,3.5,3.6,3.5c2,0,3.6-1.6,3.6-3.5c0-1.9-1.6-3.5-3.6-3.5c-0.3,0-0.5,0-0.8,0.1v-3.6l-0.2-0.3
			c-0.3-0.5-2-3.5-4.1-6.1c7.3,2.3,14.8,6.3,17,7.5v5.6h0.2c0,0.1,0,0.2,0,0.3c0,1.9,1.6,3.5,3.6,3.5s3.6-1.6,3.6-3.5
			C209.2,290.3,207.6,288.7,205.6,288.7z"/>
		<path class="st7" d="M157,289.5c-0.3-0.3-0.6-0.7-0.9-1v0.4c-0.3-0.1-0.7-0.2-1-0.2c-2,0-3.6,1.6-3.6,3.5c0,1.9,1.6,3.5,3.6,3.5
			c2,0,3.6-1.6,3.6-3.5c0-0.1,0-0.2,0-0.3h0.2V291c-0.4-0.3-0.8-0.6-1.2-1C157.4,289.8,157.2,289.7,157,289.5z"/>
		<path class="st7" d="M163.9,242.6h14.8v30.3c1.7,0.4,3.2,0.9,4.7,1.7c0,0,0.1,0,0.1,0v-32h13.6v-4.3h-33.3V242.6z"/>
		<path class="st7" d="M189.9,288.7c-0.3,0-0.5,0-0.8,0.1v-0.6c-0.5,0.2-1,0.6-1.5,1.1c-0.4,0.4-0.8,0.8-1.2,1.1v1
			c-0.1,0.2-0.1,0.5-0.1,0.8c0,1.9,1.6,3.5,3.6,3.5c2,0,3.6-1.6,3.6-3.5C193.5,290.3,191.9,288.7,189.9,288.7z"/>
		<path class="st7" d="M205.6,288.7c-0.4,0-0.7,0.1-1,0.2v-0.5c-0.7,0.8-1.7,1.5-2.7,1.9v1.6h0.2c0,0.1,0,0.2,0,0.3
			c0,1.9,1.6,3.5,3.6,3.5s3.6-1.6,3.6-3.5C209.2,290.3,207.6,288.7,205.6,288.7z"/>
		<path class="st2" d="M173.8,227.2c0,0,16.6-8.2,4.9-39.5h-22.9c0,0,7.6,15.6,4,25.6c-3.6,10-7.2,23-0.4,27.3h40.5
			c0,0,2.7-5.6-1.8-10.8C193.6,224.6,173.8,227.2,173.8,227.2z"/>
		<path class="st108" d="M173.8,227.2c0,0,16.6-8.2,4.9-39.5h-1c-0.3,0.1-0.6,0.2-0.9,0.3c-1,0.2-3.4-0.4-4.4-0.1
			c-1.7,2.9-3.5,22.4-5.8,28.1c-1.9,4.8-5.5,8.8-7.2,13.5c-0.5,1.5-0.8,3-0.7,4.5c0,0,0.1,0.2,0.2,0.5h41.5c-0.3-1.5-1-3.1-2.4-4.7
			C193.6,224.6,173.8,227.2,173.8,227.2z"/>
		<path class="st106" d="M218.4,200.9l-8.1,2.8l-4.6-0.7l-0.3,3.3l4.4,0.6c2.4,1.4,6.6,0.5,6.6,0.5l5.4-2.1l6.7,0.7
			c1.7,0.3,1.8-0.8,1.8-0.8s-8.7-3.6-9.6-4C220.1,201.1,218.4,200.9,218.4,200.9z"/>
		<g>
			<path class="st7" d="M229.9,221.6C221.8,219,204,217,204,217l-25.5,2.8c0,0-4.1,13.4,8.5,14.6c8.3,0.8,29.7,0.1,29.7,0.1
				s0,0.1-0.1,0.2c5.7-1.7,11.4-2,17.4-2.1C235.3,230,237.2,223.9,229.9,221.6z"/>
			<path class="st7" d="M235.3,228.3c-5.2-4.7-13.4,1.4-15.1,6.8c-6.3,20.6-3.9,20.4-5,55.2l6.3,1.2c0,0,12.4-56.3,13.8-60.6
				C235.4,230.8,235.3,228.6,235.3,228.3z"/>
			<path class="st4" d="M198.5,287.7h-6.3c0,0-1.5,4.2-1.9,7c-0.1,0.5,0.3,1,0.9,1h21.9c0.3-0.4,0.1-1.7-0.2-1.9
				C210.7,292.3,203.3,291.3,198.5,287.7z"/>
			<path class="st4" d="M222.2,288.2h-7.8c0,0-1.4,4-1.8,6.5c-0.1,0.5,0.3,1,0.8,1h20.6c0.2-0.4,0.1-1.6-0.2-1.8
				C231.8,292.5,226.7,291.5,222.2,288.2z"/>
			<path class="st7" d="M218.1,221.6c-7.7-2.6-22.9-4.4-22.9-4.4l-25.8,2.6c0,0-3.9,13.4,8,14.6c7.9,0.8,26.3,0,26.3,0
				s-5.7,17.5-11.9,54.5l8.2-0.2c0,0,19.6-51.2,21.8-55.4C222.7,231.3,225.7,224.1,218.1,221.6z"/>
		</g>
		<path class="st6" d="M189,157.7c0,0-5.6,1.1-10.6,2.8c-5,1.7-9.5,6.4-9.5,8.9c0,1.4,1.4,19.5,1.6,33.7c0.1,9.7-1.5,17.7-1.5,17.7
			l33-3.5c0,0,6.1-27.7,6.7-31.8c0.6-4.1,4.9-17.3,4.9-17.3S205.2,156.9,189,157.7z"/>
		<path class="st105" d="M178.7,174.2c-2.8-2.9-4.7-6.5-5.6-10.7c-2.5,2-4.2,4.4-4.2,5.9c0,1.4,1.4,19.5,1.6,33.7
			c0.1,9.7-1.5,17.6-1.5,17.6l33-3.4c0,0,2-8.9,3.8-17.3C193.8,196.6,183.3,185.9,178.7,174.2z"/>
		<path class="st6" d="M181.8,184.3c-0.8-4.1,1.5-24.1-9.2-20.4c0,0-5.4,2.9-4.4,10.7c0.9,6.2,3.7,23.9,6.3,29.1
			c2.6,5.2,2.6,4.3,3.7,4.3s10.5,0.6,31.7,0.4l3.4-6.3l-27.2-5C186.2,197.1,182.6,188.5,181.8,184.3z"/>
		<path class="st105" d="M193.6,205.2c-3.9-0.4-8.1-0.9-11.5-2.9c-2.3-1.1-4.3-2.7-5.7-5.1c-0.7-1.2-0.9-2.4-0.6-3.5
			c-1.1-3-1.8-6.3-2.5-9.1c-1.6-6.8-2.1-13.6-1.1-20.5c-1.3,0.9-4.8,4-3.9,10.4c0.9,6.2,3.7,23.9,6.3,29.1c2.6,5.2,2.6,4.3,3.7,4.3
			c1.1,0,10.5,0.6,31.7,0.4l0.2-0.4c-4.7-0.8-9.4-1.8-14.3-2.4C195.1,205.4,194.4,205.3,193.6,205.2z"/>
		<path class="st106" d="M188.7,148.9c0.3,7.2-1.6,9.9-1.6,9.9c0.6,8.8,9.4,7.1,10,0.8c0.6-6.3-0.3-10.4-0.3-10.4L188.7,148.9z"/>
		<path class="st110" d="M189,148.9c0.6,1.1,0.9,2.4,0.9,3.9c0,0.6,0.7,3,6.3,5.4c0.4,0.1,0.7,0.2,1.1,0.3c0.4-5.6-0.4-9.2-0.4-9.2
			L189,148.9z"/>
		<path class="st106" d="M188.1,133.8c-3.8,3.7,0.8,16.7,0.8,16.7s-1.1,4.1,8.9,6.7c10,2.5,6.9-22.4,6.9-22.4
			S191.1,130.9,188.1,133.8z"/>
		<path class="st111" d="M190.9,130.3c-4.1,0.3-5.9,2.5-6.3,8.2c-0.3,5.7,3.8,16.7,3.8,16.7c0.3-2.4,2.3-6.5,2.3-6.5
			c-1.6-0.2-1.6-1.7-1.6-4.5c0-2.8,2.8,0.2,2.8,0.2l1.4-0.7c0,0-0.5-1.7-0.5-3.1c0-1.4,3.1-1.8,9-1.8c5.9,0,5-6,5-6
			C204.7,133.4,195,130,190.9,130.3z"/>
		<g>
			<polygon class="st7" points="226.7,207.6 245.1,207.6 253.8,178.9 235.3,178.9 			"/>
			<path class="st7" d="M207.8,206.5c0,1.1,0.9,1.9,1.9,1.9h33.6c1.1,0,1.9-0.9,1.9-1.9v-0.4h-37.5V206.5z"/>
		</g>
	</g>
	<g>
		<g>
			<g>
				<polygon class="st82" points="77.4,295.7 79.7,295.7 96.5,209.3 87.2,209.3 				"/>
				<polygon class="st82" points="402.7,209.3 419.6,295.7 421.9,295.7 412,209.3 				"/>
			</g>
			<rect x="76.6" y="207.7" class="st2" width="346.6" height="8.5"/>
		</g>
	</g>
	<g>
		<path class="st7" d="M315.4,207.7h30.7c0.7-0.4,1.3-1.1,1.3-2l-4.8-16.9c0-1.2-1-2.2-2.2-2.2h-28.7c-1.2,0-2.2,1-2.2,2.2l4.8,16.9
			C314.1,206.6,314.7,207.3,315.4,207.7z"/>
		<polygon class="st4" points="336.7,207.7 340.9,200.3 343.9,207.7 345,207.7 341.2,197.9 312,197.9 307.2,207.7 		"/>
	</g>
	<g>
		<rect x="135.8" y="204.6" class="st6" width="28.1" height="3.3"/>
		<g>
			<rect x="136.4" y="196.2" class="st0" width="28.1" height="5.3"/>
			<path class="st6" d="M164.9,200.3h-28.7c-0.3,0-0.6,0.3-0.6,0.6v0c0,0.3,0.3,0.6,0.6,0.6h28.7c0.3,0,0.6-0.3,0.6-0.6v0
				C165.5,200.6,165.2,200.3,164.9,200.3z"/>
			<path class="st6" d="M164.9,196.2h-28.7c-0.3,0-0.6,0.3-0.6,0.6v0c0,0.3,0.3,0.6,0.6,0.6h28.7c0.3,0,0.6-0.3,0.6-0.6v0
				C165.5,196.5,165.2,196.2,164.9,196.2z"/>
		</g>
		<rect x="138.7" y="201.4" class="st4" width="28.1" height="3.2"/>
	</g>
	<g>
		<g>
			<path class="st7" d="M147.6,139.2l-13.7,54.6c1.7,0.4,4.9-6.4,5.4-8.1l7.2-28.8C146.9,155.1,149.3,139.6,147.6,139.2z"/>
		</g>
		<g>
			<path class="st7" d="M143,166.1c-0.2-0.6-0.9-0.9-1.5-0.6c-0.6,0.2-0.9,0.9-0.6,1.5l13.9,34.6c0.4,0.9,0.3,1.8-0.3,2.6
				c-0.5,0.8-1.4,1.2-2.3,1.2h-23.5c-0.6,0-1.1,0.5-1.1,1.1c0,0.6,0.5,1.1,1.1,1.1h23.5c1.7,0,3.2-0.8,4.2-2.2
				c0.9-1.4,1.1-3.1,0.5-4.7L143,166.1z"/>
		</g>
		<g>
			
				<rect x="111.4" y="164.8" transform="matrix(0.2435 -0.9699 0.9699 0.2435 -55.5295 261.0295)" class="st112" width="56.3" height="2.6"/>
		</g>
	</g>
	<g>
		
			<rect x="380.3" y="183.1" transform="matrix(0.9875 -0.1575 0.1575 0.9875 -25.0479 62.3621)" class="st4" width="1.2" height="12.2"/>
		
			<rect x="380.8" y="186" transform="matrix(0.2145 -0.9767 0.9767 0.2145 121.7026 524.8562)" class="st7" width="12.8" height="1.5"/>
		<g>
			<polygon class="st7" points="383,180.8 382.3,185.4 383.3,194 385.6,193.6 384.8,184.9 			"/>
			<polygon class="st106" points="382.3,185.4 384.8,184.9 383,180.8 			"/>
			<polygon class="st4" points="382.8,183 384,182.7 383,180.8 			"/>
		</g>
		<polygon class="st0" points="380.4,207.9 388.9,207.9 390.5,189.8 378.8,189.8 		"/>
	</g>
	<g>
		<polygon class="st0" points="174.1,207.7 182,207.7 183.3,192 172.9,192 		"/>
		<g>
			<path class="st0" d="M183,194.8c-2.4,0-4.3,2-4.3,4.3s1.9,4.3,4.3,4.3c2.4,0,4.3-2,4.3-4.3S185.4,194.8,183,194.8z M183,202
				c-1.5,0-2.8-1.3-2.8-2.8s1.3-2.8,2.8-2.8s2.8,1.3,2.8,2.8S184.5,202,183,202z"/>
		</g>
	</g>
</g>
</svg>
